# xmcd
#
# Track frame offsets: 
#        150
#        23608
#        42123
#        62258
#        80620
#        102274
#        132621
#        145754
#        165264
#        181603
#        201687
#        215139
#        233070
#        250802
#        268267
#        283280
#        302111
#        320776
#        339156
#
# Disc length: 4794 seconds
#
# Revision: 1
# Processed by: cddbd v1.5.2PL0 Copyright (c) Steve Scherf et al.
# Submitted via: ExactAudioCopy v1.0b6
#
DISCID=1812b813
DTITLE=John Kongos - Kongos [2014 Esoteric]
DYEAR=1971
DGENRE=Rock
TTITLE0=Tokoloshe Man
TTITLE1=Jubilee Cloud
TTITLE2=Gold
TTITLE3=Lift Me From the Ground
TTITLE4=Tomorrow I'll Go
TTITLE5=Try to Touch Just One
TTITLE6=Weekend Lady
TTITLE7=I Would Have Had a Good Time
TTITLE8=Come on Down Jesus
TTITLE9=He's Gonna Step on You Again
TTITLE10=Sometimes It's Not Enough
TTITLE11=Tokoloshe Man [Single Verson]
TTITLE12=Can Someone Please Direct Me Back to Earth
TTITLE13=Great White Lady
TTITLE14=Shamarack
TTITLE15=Higher Than God's Hat
TTITLE16=Would You Follow Me
TTITLE17=Ride the Lightning
TTITLE18=I Won't Ask You Where You've Been
EXTD=
EXTT0=
EXTT1=
EXTT2=
EXTT3=
EXTT4=
EXTT5=
EXTT6=
EXTT7=
EXTT8=
EXTT9=
EXTT10=
EXTT11=
EXTT12=
EXTT13=
EXTT14=
EXTT15=
EXTT16=
EXTT17=
EXTT18=
PLAYORDER=
